# xmcd CD database file
# Copyright (C) 1993-1996 Ti Kan
#
# Track frame offsets:
#	183
#	12920
#	25385
#	38070
#	50610
#	64555
#	76213
#	85603
#	97083
#	110033
#	121655
#	134085
#	144653
#	156473
#	168383
#	181018
#	192658
#	202808
#	215643
#	227288
#	239720
#	252248
#	265133
#	277315
#
# Disc length: 3860 seconds
#
# Revision: 2
# Processed by: cddbd v1.4PL0 Copyright (c) Steve Scherf et al.
# Submitted via: Gronk 1.4
#
DISCID=5d0f1218
DTITLE=Jimmy Reed - Vee-Jay Years - Disc 1/6
DYEAR=1900
DGENRE=blues
TTITLE0=High And Lonesome
TTITLE1=Jimmy's Boogie
TTITLE2=I Found My Baby
TTITLE3=Roll And Rhumba
TTITLE4=You Don't Have To Go
TTITLE5=Boogie In The Dark
TTITLE6=Shoot My Baby
TTITLE7=Rockin' With Reed
TTITLE8=You Upset My Mind
TTITLE9=I'm Gonna Ruin You
TTITLE10=Pretty Thing
TTITLE11=I Ain't Got You
TTITLE12=She Don't Want Me No More
TTITLE13=Come On Baby
TTITLE14=I Don't Go For That
TTITLE15=Baby, Don't Say That No More
TTITLE16=Ain't That Loving You Baby
TTITLE17=Can't Stand To See You Go
TTITLE18=When You Left Me
TTITLE19=I Love You Baby
TTITLE20=My First Plea
TTITLE21=You Got Me Dizzy
TTITLE22=Honey, Don't Let Me Go
TTITLE23=Untitled Instrumental
EXTD=
EXTT0=
EXTT1=
EXTT2=
EXTT3=
EXTT4=
EXTT5=
EXTT6=
EXTT7=
EXTT8=
EXTT9=
EXTT10=
EXTT11=
EXTT12=
EXTT13=
EXTT14=
EXTT15=
EXTT16=
EXTT17=
EXTT18=
EXTT19=
EXTT20=
EXTT21=
EXTT22=
EXTT23=
PLAYORDER=
